<?xml version="1.0" encoding="UTF-8"?><svg id="Layer_1" xmlns="http://www.w3.org/2000/svg" viewBox="0 0 500 500"><rect width="500" height="500" style="fill:none;"/><path d="M405.83,360.03c-6.35-20.34-16.34-35-28.82-46.62,9.45-19.31,14.78-40.99,14.78-63.91,0-80.57-65.55-146.11-146.11-146.11S99.59,168.94,99.59,249.51s65.53,146.1,146.09,146.1c30.62,0,59.07-9.49,82.57-25.66-50.27,3.37-131.57-2.76-167.81-69.72h.02c-8.88-14.88-14.09-32.18-14.09-50.72,0-54.76,44.56-99.32,99.32-99.32s99.32,44.56,99.32,99.32c0,13.39-2.71,26.14-7.53,37.81-.32-.17-.63-.34-.95-.49-4.22-2.13-36.61-18.01-40.14-19.77-19.45-9.78-37.97-20.71-47.22-34.86-1.53,4.32-2.73,5.85-3.47,14.14-1.35,15.23,9.88,32.45,24.03,47.81,12.3,13.29,27.28,24.84,43.61,36.01,26.63,18.2,77.28,50.75,84.43,92.09,1.54-2.98,3.2-6.42,4.77-10.23,7.11-17.27,7.88-37.39,3.31-51.97Z" style="fill:#0f8442;"/></svg>